<?xml version="1.0" encoding="utf-8"?>
<!-- Generator: Adobe Illustrator 22.0.0, SVG Export Plug-In . SVG Version: 6.00 Build 0)  -->
<svg version="1.1" id="Layer_1" xmlns="http://www.w3.org/2000/svg" xmlns:xlink="http://www.w3.org/1999/xlink" x="0px" y="0px"
	 viewBox="0 0 1280 880" style="enable-background:new 0 0 1280 880;" xml:space="preserve">
<style type="text/css">
	.st0{display:none;fill:#C21E1E;}
	.st1{fill:#514949;}
	.st2{fill:#C21E1E;}
	.st3{fill:#F9F9F9;}
	.st4{fill:#E8E3E3;}
	.st5{fill:#70B75B;}
	.st6{fill:#F9B25E;}
	.st7{fill:#F95E60;}
	.st8{fill:#FFFFFF;}
	.st9{font-family:'PalatinoLinotype-Bold';}
	.st10{font-size:33.1757px;}
	.st11{fill:#E2D5D5;}
	.st12{fill:#D8AA8B;}
	.st13{fill:#BFD8E3;}
	.st14{fill:#C1977A;}
	.st15{fill:#86907A;}
	.st16{fill:#EAEAEA;}
	.st17{fill:url(#SVGID_1_);}
	.st18{fill:url(#SVGID_2_);}
	.st19{fill:url(#SVGID_3_);}
	.st20{font-family:'Swiss721BT-Black';}
	.st21{font-size:32.4857px;}
	.st22{font-size:19.0781px;}
	.st23{display:none;}
	.st24{display:inline;opacity:0.76;}
	.st25{fill:#FEFEFE;}
	.st26{fill:#F3F4F6;}
	.st27{fill:#C9C9C9;}
	.st28{fill:#C5C6C7;}
	.st29{fill:#FCEDEB;}
	.st30{fill:#FCECEA;}
	.st31{fill:#CACACA;}
	.st32{fill:#4C4E4D;}
	.st33{fill:#C0C1C2;}
	.st34{fill:#5A5B5A;}
	.st35{fill:#E6E6E6;}
	.st36{fill:#575858;}
	.st37{fill:#515352;}
	.st38{fill:#3D3E3D;}
	.st39{fill:#484A49;}
	.st40{fill:#545655;}
	.st41{fill:#FBDEDB;}
	.st42{fill:#F16C5C;}
	.st43{fill:#D0D0D0;}
	.st44{fill:#595A5A;}
	.st45{fill:#F37567;}
	.st46{fill:#BEBEBE;}
	.st47{fill:#575857;}
	.st48{fill:#616362;}
	.st49{fill:#BCBCBC;}
	.st50{fill:#494B4A;}
	.st51{fill:#F05A48;}
	.st52{fill:#F27668;}
	.st53{fill:#F27466;}
	.st54{fill:#D7D8D7;}
	.st55{fill:#EF5642;}
	.st56{fill:#F58E81;}
	.st57{fill:#F06755;}
	.st58{fill:#F37E6F;}
	.st59{fill:#EF5746;}
	.st60{fill:#F05B48;}
	.st61{fill:#F48F82;}
	.st62{fill:#F17160;}
	.st63{fill:#F48D81;}
	.st64{fill:#F48275;}
	.st65{fill:#F35B4A;}
	.st66{fill:#2D4863;}
	.st67{fill:#DB4436;}
	.st68{fill:#035A84;}
	.st69{fill:#349DC3;}
	.st70{fill:#324B7E;}
	.st71{fill:#D7D8D9;}
	.st72{fill:#222323;}
	.st73{fill:#323333;}
	.st74{fill:#AFB0B1;}
	.st75{fill:#242426;}
	.st76{fill:#383839;}
	.st77{fill:#9D9EA0;}
	.st78{fill:#A3A4A5;}
	.st79{fill:#3B3C3C;}
	.st80{fill:#3C3C3D;}
	.st81{fill:#C3C4C6;}
	.st82{fill:#959698;}
	.st83{fill:#232323;}
	.st84{fill:#CDCDCE;}
	.st85{fill:#282929;}
	.st86{fill:#AAABAD;}
	.st87{fill:#C5C5C7;}
	.st88{fill:#ACADAF;}
	.st89{fill:#97989A;}
	.st90{fill:#39393B;}
	.st91{fill:#232324;}
	.st92{fill:#ADAEAF;}
	.st93{fill:#C6C7C8;}
	.st94{fill:#C6C7C9;}
	.st95{fill:#909193;}
	.st96{fill:#87888A;}
	.st97{fill:#9A9B9D;}
	.st98{fill:#8B8C8E;}
	.st99{fill:#999A9C;}
	.st100{fill:#8B8D8D;}
	.st101{fill:#343535;}
	.st102{fill:#F1F1F1;}
	.st103{fill:#E5E6E6;}
	.st104{fill:#DCDCDC;}
	.st105{fill:#D5D5D5;}
	.st106{fill:#FBFBFB;}
	.st107{fill:#DFDFDF;}
	.st108{fill:#D2D2D2;}
	.st109{fill:#E4E4E4;}
	.st110{fill:#FDFDFD;}
	.st111{fill:#F5F5F5;}
	.st112{fill:#D9D9D9;}
	.st113{fill:#D8D8D8;}
	.st114{fill:#D7D7D7;}
	.st115{fill:#DDDDDD;}
	.st116{fill:#EFEFEF;}
	.st117{fill:#F2F2F2;}
	.st118{fill:#E7E7E7;}
	.st119{fill:#DEDEDE;}
	.st120{fill:#DBDBDB;}
	.st121{fill:#D3D3D3;}
	.st122{fill:#D4D4D4;}
	.st123{fill:#DADADA;}
	.st124{fill:#E4E7E9;}
	.st125{fill:#EEDBD9;}
	.st126{fill:#DD574A;}
	.st127{fill:#ECD1CE;}
	.st128{fill:#EDDAD8;}
	.st129{fill:#DEE6E9;}
	.st130{fill:#F0F1F1;}
	.st131{fill:#BDD1DB;}
	.st132{fill:#EBEFF0;}
	.st133{fill:#D9DDE3;}
	.st134{fill:#FAFAFA;}
	.st135{fill:#F2F0F0;}
	.st136{fill:#82C1D1;}
	.st137{opacity:0.79;stroke:#E8EAEA;stroke-width:2;stroke-miterlimit:10;}
</style>
<g id="Layer_2_1_">
	<rect y="-72" class="st0" width="1280" height="1024"/>
	<path class="st1" d="M1027.7,51.2V145c0-11.7-9.6-21.2-21.2-21.2H35c-11.7,0-21.2,9.6-21.2,21.2V51.2C13.8,39.6,23.3,30,35,30
		h971.5C1018.2,30,1027.7,39.6,1027.7,51.2z"/>
	<polygon class="st2" points="845.5,100.8 826,100.8 826,100.8 	"/>
	<path class="st3" d="M199.2,49.5h740.5c6.6,0,12,5.4,12,12v30.9c0,6.6-5.4,12-12,12H199.2c-6.6,0-12-5.4-12-12V61.5
		C187.2,54.9,192.6,49.5,199.2,49.5z"/>
	<path class="st3" d="M1027.7,145v630c0,11.7-9.6,21.2-21.2,21.2H35c-11.7,0-21.2-9.6-21.2-21.2V145c0-11.7,9.6-21.2,21.2-21.2
		h971.5C1018.2,123.8,1027.7,133.3,1027.7,145z"/>
	<path class="st4" d="M858.3,665.3H151.4c-6.6,0-12-5.4-12-12V199.5c0-6.6,5.4-12,12-12h706.8c6.6,0,12,5.4,12,12v453.8
		C870.3,659.9,864.9,665.3,858.3,665.3z"/>
	<circle class="st5" cx="150" cy="77.8" r="21.2"/>
	<circle class="st6" cx="98.7" cy="76" r="21.2"/>
	<circle class="st7" cx="45.6" cy="77.8" r="21.2"/>
	<path class="st8" d="M974.3,56.5c-8,5-10.5,15.7-5.4,23.7c4.3,6.8,12.5,9.6,19.8,7.2l8.7,13.8c1.3,2,3.9,2.6,5.9,1.4
		c2-1.3,2.6-3.9,1.4-5.9L996,82.9c5.3-5.6,6.3-14.2,2.1-21C993,53.9,982.4,51.4,974.3,56.5z M989.6,80.8c-5.4,3.4-12.4,1.7-15.8-3.6
		c-3.4-5.4-1.7-12.4,3.6-15.8c5.4-3.4,12.4-1.7,15.8,3.6C996.6,70.3,994.9,77.4,989.6,80.8z"/>
	<text transform="matrix(1 0 0 1 213.4194 90.7192)" class="st1 st9 st10">WWW.</text>
	<path class="st11" d="M1061.4,729c0,31.8-12.9,60.6-33.7,81.4c-0.3,0.3-0.6,0.6-0.9,0.8c-15.9,15.6-36.4,26.6-59.2,30.9
		c-2.7,0.5-5.5,0.9-8.2,1.2c-2.1,0.2-4.2,0.4-6.4,0.5s-4.4,0.2-6.6,0.2s-4.4-0.1-6.6-0.2c-3.6-0.2-7.1-0.6-10.6-1.1
		c-1.4-0.2-2.7-0.4-4.1-0.7c-23.5-4.4-44.5-15.9-60.6-32.3c-0.3-0.3-0.6-0.6-0.9-0.9c-20-20.7-32.3-48.9-32.3-79.9
		c0-63.5,51.5-115,115-115S1061.4,665.5,1061.4,729z"/>
	<g>
		<path class="st12" d="M969.6,788.6c-1.5-1.2-2.4-2.9-2.8-4.9c-1.5-7.9-1.3-26.8-1.3-30.2c0-0.3-0.2-0.5-0.5-0.5h-1.8H926h-1.8
			c-0.3,0-0.5,0.2-0.5,0.5c0,3.3,0.2,21.9-1.3,30.2c-0.4,2.3-1.6,4.3-3.7,5.5C926.7,798.5,962.3,791.4,969.6,788.6z"/>
		<path class="st13" d="M1026.8,809.4c-15.9,15.6-36.4,26.6-59.2,30.9c-2.7,0.5-5.5,0.9-8.2,1.2c-2.1,0.2-4.2,0.4-6.4,0.5h-13.2
			c-3.6-0.2-7.1-0.6-10.6-1.1c-1.4-0.2-2.7-0.4-4.1-0.7c-23.5-4.4-44.5-15.9-60.6-32.3c3.2-2.1,6.8-3.5,10.5-4.5l4.9-1.3h-0.1
			l33.6-11l2.8-0.9l1-0.3c0.6-0.1,1.1-0.4,1.5-0.6c3,3.5,6.9,5.3,11.3,6.1l0,0c4.3,0.8,9.1,0.7,13.8,0.3c0.5,0,0.9-0.1,1.3-0.1
			c3-0.3,6-0.7,8.9-1c-0.9-0.4-1.7-0.8-2.4-1c0,0,0,0-0.1,0c-0.9-0.3-1.7-0.5-2.5-0.6l0,0c-1.1-0.1-2.2-0.1-3.7-0.1
			c2.3,0,4.6-0.1,6.8-0.3c0,0,0,0,0.1,0c5.5-0.5,10.7-1.6,15.6-3.3c0.2-0.1,0.4-0.1,0.6-0.2c0.3-0.1,0.7-0.2,1-0.3
			c0.7,0.5,1.5,1,2.4,1.2l1,0.4l0,0l2.7,0.9l33.6,11h-0.1l4.7,1.3c4.5,1.3,8.8,3.2,12.5,5.8C1026.6,809.3,1026.7,809.4,1026.8,809.4
			z"/>
		<g>
			<path class="st14" d="M966,776.6c-0.2-8.8-0.5-17.1-0.5-19.3c0-0.3-0.2-0.6-0.5-0.6h-40.7c-0.3,0-0.5,0.3-0.5,0.6
				c0,2.2-0.3,10.6-0.5,19.4c2.9,3.1,13.7,7.4,20.9,7.5C951.7,784.2,962.8,779.1,966,776.6z"/>
		</g>
		<g>
			<path class="st12" d="M906.2,713c2.9,7.8,1.2,20-3.6,22.3s-11.2-6-14-13.8c-2.9-7.8-1.2-16,3.6-18.4
				C897,700.8,903.3,705.2,906.2,713z"/>
			<path class="st12" d="M983,713c-2.9,7.8-1.2,20,3.6,22.3s11.2-6,14-13.8c2.9-7.8,1.2-16-3.6-18.4
				C992.2,700.8,985.9,705.2,983,713z"/>
		</g>
		<path class="st12" d="M944.2,643.9c-48.4-1.6-49.2,45.2-48.4,60.6c0.5,11.2,3.2,27.6,5.5,35.7c1.4,4.7,3.8,12.4,7.3,15.8
			c9.4,9.1,21.2,17.2,28.4,19.9c1.3,0.5,4.2,0.7,7.1,0.7c3,0,5.8-0.2,7.1-0.7c7.3-2.8,19-10.9,28.4-19.9c3.5-3.4,6-11.2,7.3-15.8
			c2.4-8.1,5-24.4,5.5-35.7C993.3,689,992.6,642.3,944.2,643.9z"/>
		<g>
			<ellipse class="st1" cx="919.1" cy="708.4" rx="6.1" ry="7.6"/>
			<ellipse class="st1" cx="968.2" cy="708.4" rx="6.1" ry="7.6"/>
		</g>
		<path class="st15" d="M936.9,810.4l-7.7-16.9H960l-7.7,16.9C948.9,816.4,940.3,816.4,936.9,810.4z"/>
		<path class="st15" d="M959.3,841.5c-2.1,0.2-4.2,0.4-6.4,0.5s-4.4,0.2-6.6,0.2s-4.4-0.1-6.6-0.2c-3.6-0.2-7.1-0.6-10.6-1.1
			l7.3-24.3c0.8-1.4,1.9-2.5,3.2-3.2c2.9-1.7,6.7-1.6,9.5,0.3c1.1,0.7,2,1.7,2.7,3L959.3,841.5z"/>
		<g>
			<path class="st16" d="M921.8,781.8l-7.7,5.3l16.5,24.9l15.3-19C946,793.1,923,787.2,921.8,781.8z"/>
			<path class="st16" d="M967.4,781.8l7.7,5.3L958.6,812l-15.3-19C943.3,793.1,966.3,787.2,967.4,781.8z"/>
		</g>
		
			<linearGradient id="SVGID_1_" gradientUnits="userSpaceOnUse" x1="938.4877" y1="194.9162" x2="958.6155" y2="210.8065" gradientTransform="matrix(1 0 0 -1 0 880)">
			<stop  offset="0" style="stop-color:#6B2405"/>
			<stop  offset="1" style="stop-color:#904F22"/>
		</linearGradient>
		<path class="st17" d="M964.2,673.6c-10.1-5.8-22.8-6.9-33.8-2.9s-20,13.1-24,24.1c9.9-2.8,19.7-5.5,29.6-8.3
			c12-3.4,19.7-13.7,31.3-15.7c8.2-1.5,19.7,0.6,8.2,8.2c-2.6,1.7-5.5,3.1-8.5,4c-8.6,2.7-17.2,5.4-25.8,8.2
			c1.7-0.5,6.4-9.4,8.3-11.2c2.9-2.7,6.2-4.9,9.7-6.5L964.2,673.6z"/>
		
			<linearGradient id="SVGID_2_" gradientUnits="userSpaceOnUse" x1="927.8395" y1="208.5936" x2="947.9642" y2="224.4816" gradientTransform="matrix(1 0 0 -1 0 880)">
			<stop  offset="0" style="stop-color:#6B2405"/>
			<stop  offset="1" style="stop-color:#904F22"/>
		</linearGradient>
		<path class="st18" d="M982.4,662c2.4-6.7-1.1-14.2-7.3-18.8s-14.6-6.7-22.9-7c-24.3-0.9-48.2,13.5-54.9,33.2
			c0.9,0.5,1.8,1,2.8,1.4c24.5,12.7,55.4,2.1,81.4-7.2C981,662.9,982.9,662.8,982.4,662z"/>
		<g>
			<g>
				<path class="st8" d="M926.8,744.4c3,6.7,9.7,11.3,17.4,11.3s14.4-4.7,17.4-11.3H926.8z"/>
			</g>
		</g>
		
			<linearGradient id="SVGID_3_" gradientUnits="userSpaceOnUse" x1="941.9363" y1="190.5234" x2="962.087" y2="206.4318" gradientTransform="matrix(1 0 0 -1 0 880)">
			<stop  offset="0" style="stop-color:#6B2405"/>
			<stop  offset="1" style="stop-color:#904F22"/>
		</linearGradient>
		<path class="st19" d="M989.7,665.7c-0.1-0.8-0.4-1.6-0.8-2.4c-7.6-12.3-23.7-21.3-44.7-20.5c-21-0.8-37.1,8.2-44.7,20.5
			c-0.5,0.7-0.7,1.6-0.8,2.4c-5.4,10.5-3.3,22.7-3.5,31.6c0.4,5.8,1.3,11.5,3.1,16.7c1.4-7.9,0.9-16.1,2.7-24.1
			c1.3-5.9,28.9-10.5,43.2-10.5c13.6,0,26-2.3,36-6c-5.6,6.1,3.4,15.4,8.2,22.7c0.7,6,0.7,12,1.7,17.9c1.8-5.2,2.7-10.9,3.1-16.7
			C993,688.4,995.1,676.2,989.7,665.7z"/>
	</g>
	<g>
		<path class="st1" d="M1249.2,577.4H921.3c-12.1,0-22-9.8-22-22v-71.6c0-12.1,9.8-22,22-22h327.9c12.1,0,22,9.8,22,22v71.6
			C1271.2,567.6,1261.4,577.4,1249.2,577.4z"/>
		
			<rect x="937.4" y="562.2" transform="matrix(0.7071 -0.7071 0.7071 0.7071 -129.2749 842.7288)" class="st1" width="30.5" height="30.5"/>
		<text transform="matrix(1 0 0 1 918.2295 505.0547)" class="st3 st20 st21">Contact Us</text>
		<text transform="matrix(1 0 0 1 918.6035 534.5107)" class="st4 st20 st22">We are avilable 12 / 7, to reseve</text>
		<text transform="matrix(1 0 0 1 918.6035 557.4106)" class="st4 st20 st22">Your message and spport you .  </text>
	</g>
</g>
<g id="Layer_1_1_" class="st23">
	<g class="st24">
		<g>
			<path class="st8" d="M912.4,298.6l-3.6-6.9c1.4-1.2,2.3-3,2.7-5.2c0.8-5.5-2.5-9-7.8-9.6c-4.8-0.5-8.2,2.6-8.9,7.2
				c-0.9,5.6,2.8,8.4,7.6,9.9c1.2-0.1,2.3-0.2,3.3-0.6l3.6,6.8c0.4,0.7,1.3,1,2,0.6l0.5-0.3C912.5,300.2,912.7,299.3,912.4,298.6z
				 M902.6,291.4c-3.4-1-5.9-3-5.3-6.9c0.5-3.2,2.9-5.4,6.2-5c3.7,0.4,6,2.9,5.4,6.7C908.4,289.5,906.1,291.3,902.6,291.4z"/>
		</g>
	</g>
	<g class="st24">
		<path class="st25" d="M820.8,689.5c0.9,2.3,2.2,4.9-1.8,5.4c-2.4,0.3-4.9,0.2-7.3,0.2c-144.6,0-289.3,0-433.9,0
			c-14.8,0-15.6-0.7-15.6-15.4c0-117.5,0-235.1,0-352.6c0-12.1,0-12.1,11.8-12.1c182.7,0,365.4,0,548.1,0c12,0,12,0,12,11.9
			c0,81.9,0,163.8,0,245.7c-9.9,0.1-19.1-3.8-29.3-3.1c-17.3,1.2-33.6,4.3-48.5,13.7c-7.2,4.6-10.3,2.9-11.5-5.6
			c-0.5-3.6-0.3-7.3-0.3-11c0-60.3,0-120.6,0-180.9c0-3.7,0.1-7.3,0-11c-0.4-13.4-6.3-19.5-19.8-19.6c-35.3-0.2-70.6-0.1-106-0.1
			c-83.4,0-166.9,0-250.3,0c-4,0-7.9-0.1-11.9,0c-13,0.4-19,6.2-19.4,19.1c-0.2,6.7-0.1,13.4-0.1,20.1c0,67.3,0,134.6,0,201.9
			c0,19.2,4.5,23.8,23.6,23.8c111.4,0,222.9,0,334.3,0c4,0,7.9-0.1,11.9,0c12.7,0.3,14.4,2.5,11.8,14.6c-2.7,12.9-4.2,25.9-0.6,38.8
			C819.6,678.7,819.7,684.2,820.8,689.5z"/>
		<path class="st26" d="M820.8,689.5c-9.4-18-9.4-37.1-4.4-55.8c2.8-10.3-1.1-10.1-8.6-10.1c-116.3,0.1-232.7,0.1-349,0.1
			c-19.8,0-25.4-5.6-25.4-25.5c0-74.3,0-148.6,0-222.9c0-17,6.8-23.9,23.7-23.9c122.4,0,244.8,0,367.3,0c17,0,23.8,6.8,23.8,23.7
			c0,66.1,0,132.2,0,198.2c0,3.3,0,6.6,0,11.4c27.4-18.7,55.8-22.4,85.9-12.3c-0.6,0.6-1.3,1.3-1.9,1.9c-6.6-1.4-13-4.3-20-3.7
			c-0.7,0.7-1.5,0.8-2.4,0.5c-5.4-0.6-10.7-1-16,0.3c-3.9,1.2-7.9,1.2-11.9,2c-13.2,4.1-25.7,9.4-35.8,19.2c-2.3,2.3-4.6,4.7-6.9,7
			c-6.9,6.5-11.4,14.6-15.1,23.2c-2.8,6.8-5,13.7-5.2,21.2c-0.1,0.9-0.4,1.7-0.8,2.5c-1.4,6-1.4,12.1,0,18.1
			c0.4,0.8,0.7,1.6,0.9,2.5c-1.3,6.4,5,11.9,2,18.5C820.8,687,820.8,688.2,820.8,689.5z"/>
		<path class="st26" d="M666.4,302.1c-67.9,0-135.8-0.2-203.7,0.2c-8.9,0-12.3-2.6-11.1-11.3c0.4-2.7,0.2-5.5,0-8.2
			c-0.3-5.9,2.5-8.4,8.2-8.1c1.8,0.1,3.7,0,5.5,0c133.4,0,266.8,0.1,400.1-0.1c20.3,0,17.5,5.4,17.2,22.2c-0.1,3.2-2.2,5-5.3,5.2
			c-2.7,0.2-5.5,0.1-8.2,0.1C801.6,302.1,734,302.1,666.4,302.1z"/>
		<path class="st5" d="M424.6,294.5c-3.4-1-6-3-5.4-6.9c0.5-3.2,2.9-5.5,6.3-5.1c3.7,0.4,6,2.9,5.4,6.8
			C430.5,292.5,428.1,294.3,424.6,294.5z"/>
		<path class="st7" d="M381.8,294.5c-3.8-0.7-6.1-2.7-6.1-6.1s2.2-5.9,5.7-6c3.8,0,6.4,2.3,6.2,6.3
			C387.4,292.4,384.6,293.8,381.8,294.5z"/>
		<path class="st6" d="M403.6,294.5c-3.5-0.3-5.9-2.2-6.2-5.6c-0.3-3.9,2.3-6.4,6.1-6.4c3.4,0,5.7,2.5,5.8,5.9
			C409.3,291.8,406.9,293.7,403.6,294.5z"/>
		<path class="st27" d="M820.9,685.7c-0.5-6.8-4.8-12.9-3.7-20c0.2-1.1,0.8-1.8,1.9-1.9c2.9,7.8,2.9,16.5,6.8,24
			c-0.5,0.7-0.5,1.8-1.7,2C823.1,688.4,822,687.1,820.9,685.7z"/>
		<path class="st28" d="M824.3,689.7c0.6-0.7,1.1-1.3,1.7-2c1.9,3.7,3.7,7.5,5.6,11.2c-1.2,0-2.3-0.1-3.5-0.1
			c-0.6-0.2-1.2-0.4-1.9-0.6C825.6,695.4,824.9,692.6,824.3,689.7z"/>
		<path class="st29" d="M885.6,649.3h0.2c-4.2,0.2-4-3.7-5.6-6c-1.5-2.5-2.6-5.1-4-7.7c-2.2-2.4-2.9-5.6-4.3-8.5
			c-0.6-1.8-1.2-3.5-1.8-5.3c1.3-2.1,3.8-1.7,5.7-2.6c3.1-0.5,5.9,0,8.5,1.9c0.2,0.9,0.3,1.8,0.5,2.7c1.4,2,2.8,4,5.2,4.9
			c0.7,1.6,1.4,3.3,2.1,4.9c0.4,3.9,2.9,6.5,5.7,8.8l-0.2,0.3c0.2,2.8-1,4.7-3.4,5.9C891.3,649.5,888.4,649.2,885.6,649.3z"/>
		<path class="st30" d="M906.3,644c0.6-0.1,1.3-0.2,1.9-0.3c3.5,0.2,6.4-2.4,10-2.1c3,0,4.4,2.8,6.8,3.9c0.6,0.9,1.3,1.9,1.9,2.8
			c0,2.2,1.6,4.8-1.7,6.1c-2.4,1.8-5.4,2.1-8.1,3.4c-2.1,0.7-4.4,1-6.4,2c-2.4,0.4-4.7,0.4-5.9-2.3c-0.5-0.2-1-0.4-1.4-0.8
			C901,651.7,898.3,646.7,906.3,644z"/>
		<path class="st25" d="M941.8,676.7c4.5-1.3,2.9-5.1,3.3-8.1c0.5-3.6,1.4-6.1,5.3-2.5c-3.8,11.3-2.5,20.4,3.5,24.6
			c-5.5,9-9.7,1-14.3-1.2c-1.2-1.2-2.8-0.9-4.2-0.9c-2.9-0.1-5.6-0.8-5.7-4.3c-0.1-3,2.3-4.1,4.8-4.4
			C937.2,679.4,939.4,678,941.8,676.7z"/>
		<path class="st31" d="M846.1,592.7c6.6-10.3,17.3-14.4,28.1-18.2c2.3-0.8,4.6-1.3,7-2c1.2,0.6,1.2,1.3,0,2
			C868.8,579.3,857.5,586.2,846.1,592.7z"/>
		<path class="st32" d="M901.2,689.4c-4.1,3.2-7.6,1.3-10.2-1.8c-2.5-3-3.5-6.4-1.3-10.7c2.8-5.8,7.3-3.8,11.5-3.8
			c1,1,1.2,2.2,0.7,3.5c-5,3.3-5.6,6.8-0.4,10.5C901.9,688,901.8,688.7,901.2,689.4z"/>
		<path class="st33" d="M822.7,621.9c4.7-8,6.4-18.2,16.5-22.2c-4.4,9.5-11.8,17.3-14.8,27.5C819.9,626.7,821.9,624.1,822.7,621.9z"
			/>
		<path class="st34" d="M873.4,687.6c-3.9,2.6-8.2,4.3-12.8,2.5c-4.2-1.6-5.4-5.4-5.2-9.7c0.4-6.2,4.6-7.8,9.9-7.9
			c0.6,3.9-4.8,9.4,2.9,11.5C870.4,684.7,872,686,873.4,687.6z"/>
		<path class="st35" d="M868.4,686c-2.9,1.6-5.8,2.2-7.8-1.2c-1.6-2.6-1.3-5.2,0.7-7.5c1.3-1.6,2.7-3.1,4.1-4.7
			c0.4,0.5,0.7,1.1,1.1,1.6C871.2,677.4,875.2,680.8,868.4,686z"/>
		<path class="st36" d="M953.9,690.6c-5.1,0.9-7.5-1.2-7.4-6.4c0.1-4.6,0-9.1,0-13.7c0-2.7,0.4-4.9,3.9-4.5
			C951.6,674.2,948.5,683,953.9,690.6z"/>
		<path class="st37" d="M848.2,664.5c5.2,8.7-1.4,17.5,5.1,24c0.7,0.7-0.3,2.3-1.9,2.3c-2.4,0-4.5-1.2-4.6-3.5
			C846.6,680.3,845.4,673.2,848.2,664.5z"/>
		<path class="st38" d="M941.8,676.7c3.5,5.3,0.2,5.6-4,5.9c-2.3,0.2-6.4-1.9-6.7,1.8c-0.3,3.4,3.6,3.1,6.3,3c1.4,0,2.2,0.6,2.3,2
			c-4.7-1.1-11.7,3.5-13.1-5.4c-1.1-2.7-2.4-5.3,0.4-7.8c0.8-0.3,1.7-0.5,2.6-0.5c2.7-0.3,5.4,2.8,8-0.1c1.1-0.7,2.1-1.1,3.4-0.7
			C941.2,675.6,941.5,676.1,941.8,676.7z"/>
		<path class="st39" d="M880,691.8c-2.5-6.2-1.5-11-1.6-15.7c-0.1-1.5,0.2-3.3,2.2-3.2c1.7,0.1,3.8,0.6,4.9,1.7c1.7,1.8-1,2-1.7,3
			C881,681.3,884.1,686.4,880,691.8z"/>
		<path class="st40" d="M901.2,676.7c0-1.2,0-2.4,0-3.5c4.1-1.1,6.3-0.1,6.1,4.7c-0.2,4.1-0.8,8.3,2,11.8c-3.3,2.5-5.5-1.3-8.1-0.1
			c-0.1-0.9-0.2-1.8-0.3-2.6C899.7,683.4,899.3,680,901.2,676.7z"/>
		<path class="st41" d="M916,636.8c-0.1-1.1-0.1-2.2-0.2-3.4c1.5-6.3,5.7-3.1,9.1-2.5c1.4,1.4,2.8,2.9,4.2,4.3
			c1.1,5-3.3,4.4-5.7,5.8C919.2,642.6,918,639.1,916,636.8z"/>
		<path class="st42" d="M906.3,644c-5.1,3.3-2.2,8.4-2.9,12.7c-2.7-1.9-3.3-6.3-7.7-6c-1.1-0.9-2.2-1.8-2.1-3.5
			c1.3-1.5,2.6-3,3.9-4.5C900.2,644.8,903.3,643.9,906.3,644z"/>
		<path class="st43" d="M822.7,621.9c0.1,1.9-0.2,4,1.7,5.3c-1.7,6.8-3.5,13.6-5.2,20.4c-1.2-0.2-1.9-0.9-2-2
			C817.1,637.2,819.3,629.4,822.7,621.9z"/>
		<path class="st44" d="M915.6,688c-2.9-4.6-4.3-9.6-6.1-15.8c7.4,2,5.7,8.2,8.2,11.7C918,685.8,917.4,687.2,915.6,688z"/>
		<path class="st45" d="M916,636.8c3.1-0.6,4.1,3.4,7,3.3c1.8-0.8,3.6-1.8,3.6,1.5c-2.8,0.3-3.3,1.7-1.7,3.9
			c-2.4-0.7-4.9-1.5-7.3-2.2c-0.6-0.5-1-1.2-1.2-1.9c0-1.1,0.4-2.3-0.3-3.4C916,637.6,916,637.2,916,636.8z"/>
		<path class="st46" d="M881.2,574.5c0-0.7,0-1.3,0-2c4.1-1.1,8.3-2.3,12.7-2c0.7-0.6,1.4-0.7,2.2-0.3c0.5,0.8,0.4,1.5-0.2,2.1
			C891,574.1,886.1,574.6,881.2,574.5z"/>
		<path class="st47" d="M930.6,676.7c-0.8-0.1-1.5-0.1-2.3-0.2c-0.4-0.4-0.5-0.8-0.3-1.2c0.2-0.3,0.4-0.5,0.6-0.5
			c4.1-2.8,8.3-5,12.3,0.2c-0.5,0.6-0.9,1.2-1.4,1.8C936.5,677.2,933.5,679.5,930.6,676.7z"/>
		<path class="st48" d="M919.6,682.2c2-3.1-1.4-9.8,6.1-9.4c0.9,3.5-0.1,6.6-2.2,9.5c-0.7,1.3-1.4,2.5-2.1,3.8
			C919.7,685.4,920.4,683.4,919.6,682.2z"/>
		<path class="st49" d="M817.1,645.6c0.7,0.7,1.4,1.4,2,2c0,5.4-0.1,10.8-0.1,16.1c-0.6,0.6-1.3,1.3-1.9,1.9H817
			C815.7,659,815.7,652.3,817.1,645.6L817.1,645.6z"/>
		<path class="st50" d="M919.6,682.2c0.6,1.3,1.2,2.6,1.8,3.9c-1,3.6-2,7-5.8,1.9c0.7-1.4,1.4-2.8,2.1-4.1
			C918.4,683.3,919,682.8,919.6,682.2z"/>
		<path class="st51" d="M893.6,647.3c0.7,1.2,1.4,2.3,2.1,3.5c-3.4-0.1-7.1,1.5-10.1-1.5C888.3,648.6,890.9,647.9,893.6,647.3z"/>
		<path class="st52" d="M871.9,627.1c3.9,1,4.1,4.7,5.3,7.6c-0.4,0.8-0.6,1.9-1.8,2C874,633.6,869.6,631.6,871.9,627.1z"/>
		<path class="st53" d="M927.5,655.2c-0.8-0.7-1.6-1.4-2.4-2c0.6-1.6,1.2-3.2,1.8-4.8C928.1,650.5,933.8,652.3,927.5,655.2z"/>
		<path class="st54" d="M923.5,682.3c0.7-3.2,1.4-6.3,2.2-9.5c1,0.7,1.9,1.3,2.9,2c0,0.6-0.1,1.2-0.2,1.7c-2.8,2-0.8,5.1-1.9,7.5
			C925.5,683.5,924.5,682.9,923.5,682.3z"/>
		<path class="st55" d="M880.6,642.1c1.8,2.3,2.2,5.6,5.1,7.2c-6.7,4.1-5-2.7-6.6-5.1C878.1,642.4,879,642,880.6,642.1z"/>
		<path class="st56" d="M924.9,630.9c-3.1,0.6-6.8-0.8-9.1,2.5c-1.1-1.1-3.8-2.9-1-3.6C917.9,629,922.2,625.7,924.9,630.9z"/>
		<path class="st49" d="M895.7,572.5c0-0.5,0-1.1,0-1.6c4.9-1.8,9.8-1.5,14.7-0.3c0.6,0,1.2,0,1.8,0.1c-0.7,0.7-1.3,1.3-2,2
			C905.4,572.6,900.5,572.5,895.7,572.5z"/>
		<path class="st57" d="M917.4,641.3c0.1,0.7,0.1,1.3,0.2,2c-3.1,0.3-6.1,4-9.4,0.4c0.7-0.6,1.5-1.2,2.2-1.9
			C912.6,640.5,915,641,917.4,641.3z"/>
		<path class="st58" d="M917.3,656.3c2.6-1,5.2-2.1,7.7-3.1c1,0.4,2.3,0.6,2.4,2c-2.4,1.7-5.1,2.8-8.1,2.9
			C918.4,657.8,917.3,657.6,917.3,656.3z"/>
		<path class="st59" d="M904.7,657.5c2.3,1.5,4.9,0.9,7.4,0.8c0.5,0.5,0.7,0.9,0.6,1.4c-0.1,0.5-0.3,0.7-0.5,0.7
			C908.6,662.5,905.3,663.3,904.7,657.5z"/>
		<path class="st60" d="M880.6,642.1c-0.5,0.7-1,1.4-1.5,2.1c-1.2-2.5-2.4-4.9-3.6-7.4c0.6-0.7,1.2-1.3,1.8-2
			C878.3,637.2,879.5,639.6,880.6,642.1z"/>
		<path class="st61" d="M875.7,620.4c-1.9,0.5-3.7,1-5.6,1.5c-0.9-5.6,3.2-3,5.5-3.3C876.8,619.1,876.8,619.7,875.7,620.4z"/>
		<path class="st62" d="M897.7,642.5c-4.8-1.1-7.1-3.7-5.7-8.8C894,636.6,895.9,639.5,897.7,642.5z"/>
		<path class="st63" d="M926.6,641.6c-1.2-0.5-2.4-1-3.6-1.5c2-1.6,5.1-1.9,6.1-4.8C933.7,639.5,931,640.9,926.6,641.6z"/>
		<path class="st64" d="M875.7,620.4c0-0.6,0-1.2-0.1-1.8c3,0.5,7.2-2.8,8.6,2.6C881.4,620.9,878.6,620.6,875.7,620.4z"/>
		<path class="st51" d="M912.2,660.4c0-0.7-0.1-1.4-0.1-2.1c1.7-0.7,3.4-1.4,5.1-2c0.7,0.6,1.4,1.2,2,1.8
			C917.2,659.7,914.9,660.5,912.2,660.4z"/>
		<path class="st65" d="M890,628.7c-4.5,1.2-4.2-2.5-5.2-4.9C887.5,624.4,888.3,627,890,628.7z"/>
		<path class="st30" d="M917.4,641.3c-2.4,0.2-4.7,0.4-7.1,0.6c1.9-1.3,3.8-2.6,5.7-3.9C917.6,638.6,917.3,640,917.4,641.3z"/>
		<path class="st25" d="M640.8,466.5c54.2,0,108.3,0,162.5,0c13.7,0,20.9,5.9,21.2,17.1c0.4,11.1-5.3,17.8-16.3,19.2
			c-2.1,0.3-4.3,0.1-6.4,0.1c-108,0-216,0-324,0c-13.4,0-20.4-6.1-20.6-17.6c-0.2-12,6.6-18.9,19.3-18.9
			C531.2,466.5,586,466.5,640.8,466.5z"/>
		<path class="st25" d="M639.9,409.9c54.5,0,108.9,0,163.4,0c13.7,0,20.8,5.9,21.2,17.2c0.4,11.1-5.3,17.8-16.3,19.2
			c-2.1,0.3-4.3,0.1-6.4,0.1c-108,0-216,0-324,0c-13.3,0-20.4-6.1-20.6-17.6c-0.2-12,6.6-18.9,19.3-18.9
			C531,409.9,585.4,409.9,639.9,409.9z"/>
		<path class="st66" d="M660,576.7c0.2,11.6-9.2,21.1-21.3,21.4c-12.5,0.3-22.6-9.1-22.6-21.1c0-11.6,9.7-20.9,21.7-21
			C650,556,659.8,565.1,660,576.7z"/>
		<path class="st67" d="M588.6,598.1c-12.1-0.1-21.7-9.4-21.7-21c0-11.9,10.1-21.4,22.6-21c12.1,0.3,21.5,9.8,21.3,21.4
			C610.4,589.1,600.6,598.2,588.6,598.1z"/>
		<path class="st68" d="M687.3,556.1c12.1,0,21.8,9.1,22,20.7c0.2,12-9.8,21.5-22.3,21.3c-12.1-0.2-21.6-9.5-21.5-21.2
			C665.6,565.3,675.2,556.1,687.3,556.1z"/>
		<path class="st69" d="M738.4,599.9c-12.1-0.1-21.8-9.9-21.8-22.1c0.1-12.1,9.9-21.8,22.1-21.8c12.1,0.1,21.8,10,21.8,22.1
			C760.4,590.3,750.6,600,738.4,599.9z"/>
		<path class="st70" d="M539.9,596.3c-11.5-0.2-20.6-9-20.6-20.1c0-11.3,9.6-20.3,21.4-20.1c11.5,0.2,20.6,9,20.6,20.1
			C561.3,587.5,551.8,596.5,539.9,596.3z"/>
		<path class="st71" d="M627.3,375.2c0.5,0.5,1,0.9,1.6,1.4c2.3,2.7,1.9,5.9,1.6,9c-2.4,5.8-6.2,6.6-11.1,3
			c-4.5-4.8-2.8-9.4,0.5-13.9C622.4,374.3,624.9,373.6,627.3,375.2z"/>
		<path class="st72" d="M602.6,371.4c3.2,5.7,2.3,9.6,2.1,13.3c-0.3,5.8,4.6,4.1,8.4,5.3C601.3,393.7,600.1,393.9,602.6,371.4z"/>
		<path class="st73" d="M665.5,391.2c-3.5-3.8-0.9-8.4-1.5-12.6c-0.2-1.8-1.1-4.5,1.8-5.3c2.1-0.5,3.1,1.3,4.1,2.8
			c2.8,4-3.2,2.4-2.9,4.7C665.3,384.1,667.6,387.9,665.5,391.2z"/>
		<path class="st74" d="M667.3,526.9c1.7-0.3,2.3-3.8,4.1-2.4c2.7,2.1,1.5,5.6,1.2,8.4c-0.4,3.6-3,3-5.4,2.3
			C665.2,532.4,666.1,529.6,667.3,526.9z"/>
		<path class="st75" d="M676,387.5c3.1-4.1,0.3-9.4,3-14.7c2,5.9,0.8,10.9,1.1,15.8c0.1,1.5-0.1,3.2-2.2,2.9c-2-0.3-3.2-1.4-2.4-3.7
			L676,387.5z"/>
		<path class="st76" d="M619.5,375.1c-1.8,5-1.4,10,0.2,15V390c-6.5-5.5-6.6-9.7-0.2-14.7V375.1z"/>
		<path class="st77" d="M667.3,526.9c1.9,2.8,0.6,5.5-0.1,8.3c-5.5,0.7-3.3-3.6-3.6-6C663.1,526.2,664.8,525.6,667.3,526.9z"/>
		<path class="st78" d="M652.4,532.8c-1.6,0.6-2,4.9-4.6,2c-1.4-1.6-2.8-4.6-1.2-6.6c1.4-1.9,3,0.9,4.6,1.3c0.9,0.1,1.5,0.5,2,1.2
			C653.4,531.5,653.1,532.2,652.4,532.8z"/>
		<path class="st79" d="M640.2,377.1c-1.3,3.3,0.7,7.1-2.7,11.8c-1.6-5-3.3-8.4,0.7-11.9C639,376.3,639.6,376.3,640.2,377.1z"/>
		<path class="st43" d="M817.1,645.6c0,6.7,0,13.4,0,20.1C814.4,659,814.4,652.3,817.1,645.6z"/>
		<path class="st80" d="M629.3,386.2c-0.1-3.2-0.3-6.4-0.4-9.6c6.5,2.8,4.4,7,1.9,11.3C629.9,387.6,629.4,387.1,629.3,386.2z"/>
		<path class="st81" d="M614.1,527.1c5.3,2.9,4.9,5.8,0.1,8.8c-1.7-0.7-3-1.8-3.3-3.7C610.6,529.7,612,528.1,614.1,527.1z"/>
		<path class="st82" d="M612.3,532.3c0.6,1.2,1.3,2.4,1.9,3.6c-3,2.8-5.9,2.9-8.9,0.1l-0.1,0.1c1.1-1.3,2.2-2.6,3.2-4
			C609.8,531.2,611.1,531.2,612.3,532.3z"/>
		<path class="st83" d="M658,393.1c-2.8-5.5-1.8-9.1-1.9-12.6c-0.1-2.3-0.9-4.8,1.5-7.3C659.6,379.5,658.9,385.2,658,393.1z"/>
		<path class="st84" d="M910.4,570.6c-4.9,0.1-9.8,0.2-14.7,0.3c-0.7-0.1-1.3-0.2-2-0.3C899.3,568.1,904.9,568,910.4,570.6z"/>
		<path class="st85" d="M629.3,386.2c0.5,0.6,1,1.1,1.5,1.7c-2.9,4.7-6.6,5.3-11,2.1v0.1C622.9,388.8,627.3,390.4,629.3,386.2z"/>
		<path class="st86" d="M634.5,527c2.8,3.6,3.6,6.8-1.8,8.8C629.9,532.2,630.2,529.2,634.5,527z"/>
		<path class="st87" d="M603.5,535.8c-1.3,0-2.6,0.1-3.8,0.1c-0.8-1.8-0.5-3.9-1.4-5.7c-0.1-1.3,0.4-2.3,1.3-3.2c1.3,0,2.7,0,4,0
			C604.6,530,604.7,532.9,603.5,535.8z"/>
		<path class="st88" d="M622,535.9c-2-2.5-2.7-4.9-1.2-5.8c3-1.8,2.3,1.3,2.5,2.7C623.3,533.5,622.7,534.3,622,535.9z"/>
		<path class="st89" d="M612.3,532.3c-1.3-0.1-2.6-0.1-3.9-0.2c-1.2-5.1,1.4-6.1,5.7-5.1C613.5,528.8,612.9,530.6,612.3,532.3z"/>
		<path class="st90" d="M650.8,389.8c-3.1,3.7-6.5,1.9-10.9,1.4c3.1-3.5,7-0.3,9-3.4C650.1,388,650.1,389.1,650.8,389.8z"/>
		<path class="st91" d="M640.2,377.1c-0.6,0-1.3-0.1-1.9-0.1c3-5.7,7.7-4,13.7-3.2C647.5,376.5,643.2,374.4,640.2,377.1z"/>
		<path class="st88" d="M640.3,530.3c1.4,0.4,1.1,1.6,1,2.7c-0.1,1.2-0.6,2.4-2.1,2.1c-0.5-0.1-0.8-1.4-0.9-2.2
			C638.2,531.6,638.7,530.6,640.3,530.3z"/>
		<path class="st92" d="M677.9,533c-0.2,1.2-0.7,2.4-2.1,2.1c-0.5-0.1-0.8-1.4-0.9-2.2c-0.1-1.2,0.4-2.5,1.8-2.5
			C678.3,530.4,677.8,531.9,677.9,533z"/>
		<path class="st93" d="M634.5,527c-1.8,2.7-2,5.7-1.8,8.8c-0.7,0-1.4,0-2.1,0c-1.2-2.9-1-5.8-0.1-8.7
			C631.8,527.1,633.2,527.1,634.5,527z"/>
		<path class="st94" d="M660.2,535.8c-1.1-1.1-2.2-2.1-3.3-3.2c-2.5-2.5,0.7-3.8,1.2-5.7c0.7,0,1.4,0,2.1,0.1
			C661.3,530,661.3,532.9,660.2,535.8z"/>
		<path class="st95" d="M599.4,530.5c1.1,1.8,1.7,3.5,0.3,5.4c-1.5-0.1-2.9-0.2-4.4-0.4c0.8-1.1,1.7-2.1,2.5-3.2
			C597.1,530.7,598.1,530.4,599.4,530.5z"/>
		<path class="st91" d="M650.8,389.8c-0.6-0.7-1.2-1.3-1.9-2c1-2.9-3.5-2.8-2.8-5.3c0.1-0.4,2.4-0.7,3.3-0.3
			C653.2,383.9,651.4,387,650.8,389.8z"/>
		<path class="st91" d="M665.5,391.2c0.5-3.5-0.9-7.2,1.5-10.4C666.7,384.3,669.4,388.2,665.5,391.2z"/>
		<path class="st96" d="M599.4,530.5c-0.5,0.6-1,1.2-1.6,1.9c-1.8-0.2-2.8-1.5-2.6-3.1c0.4-2.2,2.3-2.6,4.2-2.3
			C599.5,528.2,599.5,529.4,599.4,530.5z"/>
		<path class="st97" d="M658.1,527c-0.4,1.9-0.8,3.8-1.2,5.7l-0.3-0.1c-2.1,1.2-2.8-0.6-3.7-1.9c-0.5-0.4-1.1-0.8-1.6-1.1
			C653.5,528.6,655.8,527.8,658.1,527z"/>
		<path class="st91" d="M676,387.5l-0.5,0.3c-2.6-0.8-3.4-2.6-3.8-5.4C675.3,382.9,675.8,385,676,387.5z"/>
		<path class="st98" d="M603.5,535.8c0-2.9,0-5.9,0-8.8c3.2,2.5,1.1,6,1.6,9.1l0.1-0.1C604.7,536,604.1,536,603.5,535.8z"/>
		<path class="st98" d="M660.2,535.8c0-2.9,0-5.9,0-8.8C662.7,530,662.8,532.9,660.2,535.8z"/>
		<path class="st99" d="M652.8,530.6c1.2,0.6,2.5,1.2,3.7,1.9c-0.4,1-0.7,2.8-1.3,3c-1.9,0.5-2.4-1.1-2.8-2.7
			C652.6,532.1,652.7,531.3,652.8,530.6z"/>
		<path class="st100" d="M630.5,527.2c0,2.9,0.1,5.8,0.1,8.7C627.9,533,628.2,530.1,630.5,527.2z"/>
		<path class="st101" d="M619.5,375.1l-0.1,0.2c2.6-4,5.2-3.3,7.8-0.1C624.7,375.2,622.1,375.1,619.5,375.1z"/>
		<path class="st102" d="M901.2,676.7c2.8,3.5,2.4,6.8-0.3,10.1c-4.8,1.4-8.3-1.1-8.5-5.3C892.1,675.7,897.4,676.8,901.2,676.7z"/>
		<path class="st103" d="M930.6,676.7c3-1.2,6-2,8.9,0.1C936.5,679.9,933.5,683.1,930.6,676.7z"/>
		<path class="st104" d="M616.1,483c1.2,0.1,2.4,0.1,3.6,0.2c2.5,1.3,5,1.5,7.4-0.3c2.4,1.9,4.9,3.7,7.3,5.6l-0.1-0.1
			c-4.9,7.1-12.1,2.5-18.2,3.7c0.8-1,0.3-4.5-0.6-6C614.9,485,615.4,483.9,616.1,483z"/>
		<path class="st105" d="M603.4,490.3c-1.2,0.8-2.6,1.5-3.7,2.3c-1.1,0.8-2,1.9-3.8,3.5c0.7-5.4-1.9-10.4,2.3-14.3
			c1.3-1.2,3.6-0.7,5,0.7C605.6,485,606.1,487.6,603.4,490.3L603.4,490.3z"/>
		<path class="st106" d="M650.9,483c2.8,0.3,6.4-0.9,7,3.5c0.3,1.9-0.4,3.7-2.2,4.5c-2.5,1.2-3.8-0.7-4.9-2.6
			C649.4,486.6,649.2,484.8,650.9,483z"/>
		<path class="st107" d="M614.5,492.2c-2.4-0.4-6.6,1.2-6.5-2.2c0.1-2.7,1-7.9,6.5-7C615.7,486,616.5,489.1,614.5,492.2z"/>
		<path class="st106" d="M627.1,482.9c-3.7,3.6,3,3.7,1.9,6.9c-4.8,0.4-6.7-3.7-9.3-6.7C622.1,480.6,624.6,480.5,627.1,482.9z"/>
		<path class="st108" d="M671,481.2c1.9,0.6,4.2-3.4,5.1-0.8c1,2.9,0.9,6.8-0.3,9.7c-1.3,3.1-4.3,2.4-6.7,0.2
			c0.1-0.4,0.3-0.7,0.4-1.1c2.2-1.8,1.5-3.9,0.6-6C670.1,482.4,670.4,481.8,671,481.2z"/>
		<path class="st109" d="M634.4,488.5c0.6-4.5,3.8-4.5,7.1-4.3C640.4,487.8,638.8,490.5,634.4,488.5
			C634.4,488.4,634.4,488.5,634.4,488.5z"/>
		<path class="st110" d="M614.5,492.2c0-3.1,0-6.1,0-9.2c0.5,0,1.1,0,1.6,0c-0.2,3,7.6,6,0.1,9.1
			C615.6,492.1,615.1,492.1,614.5,492.2z"/>
		<path class="st111" d="M650.9,483c0,1.8,0,3.7,0,5.5c-5,0.7-4.8-3-4-5.7C647.6,480.1,649.6,481.7,650.9,483z"/>
		<path class="st112" d="M661.7,480.2c1.6,5,0.2,7.3-0.7,10.9C659.4,487.3,659.9,484.8,661.7,480.2z"/>
		<path class="st112" d="M671,481.2c0,0.6,0,1.2,0,1.8c1.7,3,0.2,5.2-1.8,7.3l0,0C665.8,486.5,667.1,483.6,671,481.2z"/>
		<path class="st105" d="M656.5,422.8c4.3,0.5,8.9-1.6,12.7,1.8c-0.6,0.8-1.3,0.9-2,0.1c-3.5,1-2.8,4.8-4.3,7.1
			c-2-1.7,0-4.8-2.7-6.2c-3.6,1.5-0.5,6.3-3.7,8C653,430,653.9,426.4,656.5,422.8z"/>
		<path class="st113" d="M647.2,430c0.9-2.8,2-5.4,5.5-5.5c2.3,3.1,2.2,6.1,0,9.2c-2.6-0.1-5.4,0.7-7.5-1.8
			C645.6,431,646.9,431,647.2,430z"/>
		<path class="st114" d="M603.4,433.6c-7.3,0.4-9.9-2.7-7.9-10.1c4.1,1.8,0.5,8.1,5.9,8.1C603.1,431.3,603.8,431.9,603.4,433.6z"/>
		<path class="st35" d="M603.4,433.6c-0.7-0.7-1.3-1.3-2-2c1.5-2.7-3.3-10.2,5.6-7.2c0.6,0.5,0.9,1.1,1,1.9
			c-0.1,1.8,0.3,3.6,0.2,5.5c-0.2,0.7-0.6,1.3-1.1,1.8C605.8,433.6,604.6,433.6,603.4,433.6z"/>
		<path class="st35" d="M647.2,430c1.1,2.5-1.2,1.4-2,1.9c-9,3-3.8-4.6-5.5-7.2c0.6-1,1.3-1.1,2.1-0.2
			C643.9,426,643.5,430,647.2,430z"/>
		<path class="st115" d="M674.7,426.5c1-1.9,2.1-4.1,4.8-2.8c0.9,0.4,1.8,2,1.7,2.8c-0.7,3.7-3.8,3.2-6.5,3.2
			C673.5,428.7,673.5,427.6,674.7,426.5z"/>
		<path class="st116" d="M621.6,424.5c1.9-0.6,3.8-1.1,5.7-1.7c1.2,3.6,1.2,7.2-0.1,10.7c-1.2,0-2.5,0.1-3.7,0.1
			c-0.6-0.6-1.2-1.2-1.7-1.9C620.6,429.4,620.1,427,621.6,424.5z"/>
		<path class="st117" d="M652.7,433.7c0-3.1,0-6.1,0-9.2c1.2-0.6,2.5-1.1,3.7-1.7c0,3.6,0,7.2-0.1,10.8
			C655.2,433.6,653.9,433.6,652.7,433.7z"/>
		<path class="st118" d="M621.6,424.5c1.3,2.3,2,4.7,1.8,7.3c-8.3,2.4-6.8-2.5-5.5-7.3C619.2,424.5,620.4,424.5,621.6,424.5z"/>
		<path class="st119" d="M674.7,426.5c0,1.1,0,2.2,0,3.3c-7,4.7-5.3-2.9-7.5-5.2c0.7,0,1.4-0.1,2-0.1
			C671,425.2,672.8,425.8,674.7,426.5z"/>
		<path class="st120" d="M618,424.5c-0.1,3.9-0.1,7.7,5.5,7.3c0,0.6,0,1.2,0,1.8c-3.8,0.7-6.8-0.7-9.2-3.7c-0.5,0.5-1.1,0.6-1.7,0.1
			c-0.4-0.6-0.5-1.2-0.1-1.8C615.2,428.3,616,425.5,618,424.5z"/>
		<path class="st121" d="M641.8,424.5c-0.7,0.1-1.4,0.1-2.1,0.2c-4.4,0.3-3,4.2-4.1,7.2C633.8,422.6,634.2,422.2,641.8,424.5z"/>
		<path class="st122" d="M627.2,433.6c0-3.6,0.1-7.2,0.1-10.7c1.3,0.1,4.1,0.4,3.5,1C628,426.7,630.2,431.1,627.2,433.6z"/>
		<path class="st123" d="M612.5,428.3c0,0.6,0,1.1,0,1.7c-0.3,0.3-0.7,0.5-1,0.8c-3.3,0.4-4.9-0.8-4.6-4.3c0-0.7,0-1.4,0-2.1
			C610.1,423.8,609.9,428.1,612.5,428.3z"/>
		<path class="st115" d="M680,432.7c-1.5,1.6-3.2,1.1-4.9,0.5C676.5,431.1,678.1,431.5,680,432.7z"/>
		<path class="st114" d="M612.5,430c0.6,0,1.2,0,1.8,0c-0.7,4.6-4.3,3.6-7.3,3.6c0-0.5,0-1.1,0-1.6c1.2-2.2,3.9-0.2,5.3-1.9
			L612.5,430z"/>
		<path class="st124" d="M638,564.2c1.3,3.5,5.2,4.8,7,7.7c1.5,2.3-2.1,1.8-3.2,2.8c-3.5,3-3.8,7.1,0.3,9.3c2.1,1.1,4.1,1.5,3.1,4
			c-0.9,2.4-3.5,2-5.5,1.8c-1.2-0.1-2.5-0.4-3.5-0.9c-5.1-2.9-5.4-20.5-0.5-23.4C636.3,565.1,636.9,564.8,638,564.2z"/>
		<path class="st125" d="M592.3,576.4c0,5.2-2.2,8.7-7.7,9.1c-4,0.3-7.7-0.8-9.5-5c-2-4.5-1.1-7.9,3.6-10c1.7-0.4,3.4-1.2,4.8,0.6
			c1.1,2.5-1.9,3.4-2.1,6.5C585.1,573.4,588.7,574.2,592.3,576.4z"/>
		<path class="st126" d="M592.3,576.4c-4.8-0.3-4.5-0.2-5.8,4c-0.7,2.2-2.7,4.4-5.3,1.7c-3.9-4.1-4.7-7.7,2-9.8
			c1.9-1.5,3.7-1,5.5,0.1C589.9,573.8,591.1,575.1,592.3,576.4z"/>
		<path class="st127" d="M603.1,577c-1.6,1.4-3,3.4-4.2,3.3c-1.2,0-2.7-2.1-3.3-3.5c-0.2-0.5,2-2.9,2.9-2.8
			C600,574.2,601.3,575.7,603.1,577z"/>
		<path class="st128" d="M588.7,572.4c-1.8,0-3.7-0.1-5.5-0.1c-1.5-0.6-3-1.3-4.5-1.9C582.8,567.6,586.3,567.4,588.7,572.4z"/>
		<path class="st129" d="M684.1,580.3c0.9-2.9-1.2-7.1,2.4-7.3c3.9-0.2,8.6-2.7,12,1.2c2.9,3.3,1.7,7.5,1.5,11.4
			c-0.1,1.3-1.5,1.6-2.8,1.5c-2.6-0.3-2.1-2.3-2.4-4.1c-0.3-2.2,1.1-5.9-2-6.1c-3.9-0.3-2.8,3.6-3.1,6.1c-0.2,1.7,0.4,4.2-2.3,4
			C682.1,586.6,685.7,582.1,684.1,580.3z"/>
		<path class="st130" d="M682.2,579.5c-1.3,2.7,1.9,7.5-3.2,7.3c-4.1-0.2-2.3-4.3-2.2-6.6c0.1-2.6-2.2-7.2,2.4-7.3
			C684.1,572.7,680.4,577.7,682.2,579.5z"/>
		<path class="st131" d="M679.3,565.4c1.6,0.3,2.8,1.2,2.6,2.9s-1.5,2.6-3.1,2.1c-0.9-0.3-2.1-1.4-2.2-2.3
			C676.4,566.5,677.7,565.6,679.3,565.4z"/>
		<path class="st132" d="M726.5,568.5c5.6,3.9,10.1,7,14.3-0.3c1.4-2.5,4.9-0.8,7.5,0.2c3.8,1.5,1.3,4,1,6.1
			c-0.2,1.8-0.8,3.6-1.6,5.2c-2.8,6-7.6,8.8-14.3,9.4c-8.3,0.8-0.8-6.1-4.4-8.3C725.8,578.8,726.3,573.9,726.5,568.5z"/>
		<path class="st133" d="M545.5,574.8c-5,2.1-1.7,7.9-3.6,12c-0.9,1.9-2.9,2.1-4.4,0.3c-1.8-2.2-1.4-18.6,0.4-20.8
			c1.7-2,4.2-2.9,6.5-1.8c3,1.4,1.6,2.8-0.4,4.5C541.1,571.6,546.1,571.8,545.5,574.8z"/>
		<path class="st134" d="M603.4,490.3c-2.8,0-5.6-0.1-5.3-4.1c0.1-1.2,0.7-2.6,2.1-2.3C603.7,484.7,603,487.8,603.4,490.3
			C603.3,490.3,603.4,490.3,603.4,490.3z"/>
		<path class="st134" d="M669.1,490.3c0.6-2.4,1.2-4.9,1.8-7.3c2.5,0.3,3.7,1.6,3.5,4.1C674.1,490.5,671.5,490.2,669.1,490.3z"/>
		<path class="st106" d="M612.4,430.1c-1.3,1.9-3.4,1.7-5.3,1.9c-2-1.8-2.4-3.6-0.2-5.5C608.1,428.7,609.9,429.9,612.4,430.1z"/>
	</g>
</g>
<path class="st135" d="M819.3,291H192c-6.6,0-12-5.4-12-12v-34c0-6.6,5.4-12,12-12h627.3c6.6,0,12,5.4,12,12v34
	C831.3,285.6,825.9,291,819.3,291z"/>
<path class="st135" d="M819.3,382H192c-6.6,0-12-5.4-12-12v-34c0-6.6,5.4-12,12-12h627.3c6.6,0,12,5.4,12,12v34
	C831.3,376.6,825.9,382,819.3,382z"/>
<path class="st135" d="M819.3,473H192c-6.6,0-12-5.4-12-12v-34c0-6.6,5.4-12,12-12h627.3c6.6,0,12,5.4,12,12v34
	C831.3,467.6,825.9,473,819.3,473z"/>
<path class="st135" d="M493.7,564H192c-6.6,0-12-5.4-12-12v-34c0-6.6,5.4-12,12-12h301.7c6.6,0,12,5.4,12,12v34
	C505.7,558.6,500.3,564,493.7,564z"/>
<path class="st136" d="M577.8,628h-146c-6.6,0-12-5.4-12-12v-7c0-6.6,5.4-12,12-12h146c6.6,0,12,5.4,12,12v7
	C589.8,622.6,584.4,628,577.8,628z"/>
<polygon class="st137" points="569.5,653.7 564.5,658 551.4,643.2 542.1,651.6 528.8,614.3 564.5,631.4 556.3,638.8 "/>
</svg>
